<svg version="1.0" xmlns="http://www.w3.org/2000/svg"
 width="1600.000000pt" height="1600.000000pt" viewBox="0 0 1600.000000 1600.000000"
 preserveAspectRatio="xMidYMid meet">

<g transform="translate(0.000000,1600.000000) scale(0.100000,-0.100000)"
fill="#000000" stroke="none">
<path d="M7815 14834 c-311 -11 -633 -41 -898 -84 -2041 -327 -3824 -1563
-4857 -3366 -474 -827 -779 -1793 -866 -2741 l-7 -73 1740 0 1740 0 7 48 c3
27 20 104 36 172 219 895 777 1651 1566 2121 381 226 783 368 1254 441 128 20
182 22 470 22 351 0 460 -10 730 -70 633 -141 1196 -450 1656 -909 451 -449
752 -984 904 -1605 16 -68 33 -145 36 -172 l7 -48 1738 0 1739 0 0 23 c0 30
-26 257 -45 392 -141 991 -518 1972 -1080 2810 -1123 1675 -2902 2763 -4894
2995 -279 32 -728 53 -976 44z"/>
<path d="M7740 10230 c-925 -112 -1685 -779 -1915 -1680 -42 -167 -56 -278
-62 -490 -4 -159 -2 -235 11 -338 127 -993 879 -1771 1875 -1939 82 -14 162
-18 351 -18 189 0 269 4 351 18 910 153 1622 816 1833 1707 75 315 75 705 0
1020 -210 887 -920 1551 -1824 1706 -112 19 -504 28 -620 14z"/>
<path d="M1194 7358 c182 -1952 1204 -3739 2801 -4898 991 -719 2164 -1158
3395 -1269 351 -32 867 -32 1215 -1 1871 170 3567 1083 4742 2552 824 1030
1336 2300 1459 3616 l7 72 -1740 0 -1740 0 -7 -48 c-18 -135 -100 -423 -177
-618 -344 -877 -1046 -1576 -1925 -1917 -431 -168 -825 -235 -1313 -224 -261
6 -418 24 -641 73 -1007 225 -1860 897 -2311 1822 -120 246 -224 550 -272 799
l-22 113 -1739 0 -1739 0 7 -72z"/>
</g>
</svg>
